<svg width="286" height="246" viewBox="0 0 286 246" fill="none" xmlns="http://www.w3.org/2000/svg">
<rect x="61" y="54" width="192" height="192" rx="30" fill="white"/>
<path d="M63 150V84C63 68.536 75.536 56 91 56H223C238.464 56 251 68.536 251 84V150" stroke="#BEC5D2" stroke-width="4" stroke-dasharray="1 8"/>
<path d="M34 150V75C34 48.4903 55.4903 27 82 27H232C258.51 27 280 48.4903 280 75V150" stroke="#DCE1E8" stroke-width="12"/>
<path d="M127.209 168V131.16H118.509V123.3H136.509V168H127.209ZM143.114 168V160.8L155.114 148.44C157.474 146 159.254 144.08 160.454 142.68C161.694 141.24 162.534 140.04 162.974 139.08C163.454 138.12 163.694 137.18 163.694 136.26C163.694 134.62 163.154 133.34 162.074 132.42C161.034 131.46 159.714 130.98 158.114 130.98C156.474 130.98 155.014 131.46 153.734 132.42C152.454 133.34 151.514 134.76 150.914 136.68L142.814 134.04C143.294 131.72 144.294 129.7 145.814 127.98C147.334 126.26 149.174 124.94 151.334 124.02C153.494 123.06 155.754 122.58 158.114 122.58C161.074 122.58 163.674 123.1 165.914 124.14C168.154 125.18 169.894 126.64 171.134 128.52C172.374 130.4 172.994 132.6 172.994 135.12C172.994 136.72 172.714 138.3 172.154 139.86C171.594 141.38 170.734 142.94 169.574 144.54C168.454 146.1 166.994 147.8 165.194 149.64L154.934 160.2H173.414V168H143.114ZM192.836 168.72C190.476 168.72 188.196 168.28 185.996 167.4C183.796 166.48 181.916 165.2 180.356 163.56C178.796 161.88 177.776 159.88 177.296 157.56L185.516 154.8C186.116 156.72 187.076 158.12 188.396 159C189.716 159.88 191.196 160.32 192.836 160.32C194.236 160.32 195.456 160.04 196.496 159.48C197.536 158.88 198.336 158.06 198.896 157.02C199.496 155.94 199.796 154.7 199.796 153.3C199.796 151.9 199.496 150.68 198.896 149.64C198.336 148.6 197.536 147.8 196.496 147.24C195.456 146.64 194.236 146.34 192.836 146.34C191.396 146.34 190.116 146.66 188.996 147.3C187.876 147.9 187.056 148.84 186.536 150.12L178.916 148.32L182.516 123.3H207.476V131.1H186.296L189.776 126.9L187.316 145.5L184.796 143.28C185.796 141.64 187.056 140.44 188.576 139.68C190.136 138.92 192.136 138.54 194.576 138.54C197.576 138.54 200.156 139.18 202.316 140.46C204.476 141.7 206.136 143.42 207.296 145.62C208.496 147.82 209.096 150.38 209.096 153.3C209.096 156.22 208.376 158.86 206.936 161.22C205.536 163.54 203.616 165.38 201.176 166.74C198.736 168.06 195.956 168.72 192.836 168.72Z" fill="#242E49"/>
<path d="M130.232 189.168C129.579 189.168 128.972 189.047 128.412 188.804C127.852 188.552 127.376 188.211 126.984 187.782C126.592 187.353 126.303 186.858 126.116 186.298L127.516 185.71C127.768 186.354 128.137 186.849 128.622 187.194C129.107 187.539 129.667 187.712 130.302 187.712C130.675 187.712 131.002 187.656 131.282 187.544C131.562 187.423 131.777 187.255 131.926 187.04C132.085 186.825 132.164 186.578 132.164 186.298C132.164 185.915 132.057 185.612 131.842 185.388C131.627 185.164 131.31 184.987 130.89 184.856L128.93 184.24C128.146 183.997 127.549 183.629 127.138 183.134C126.727 182.63 126.522 182.042 126.522 181.37C126.522 180.782 126.667 180.269 126.956 179.83C127.245 179.382 127.642 179.032 128.146 178.78C128.659 178.528 129.243 178.402 129.896 178.402C130.521 178.402 131.091 178.514 131.604 178.738C132.117 178.953 132.556 179.251 132.92 179.634C133.293 180.017 133.564 180.46 133.732 180.964L132.36 181.566C132.155 181.015 131.833 180.591 131.394 180.292C130.965 179.993 130.465 179.844 129.896 179.844C129.551 179.844 129.247 179.905 128.986 180.026C128.725 180.138 128.519 180.306 128.37 180.53C128.23 180.745 128.16 180.997 128.16 181.286C128.16 181.622 128.267 181.921 128.482 182.182C128.697 182.443 129.023 182.639 129.462 182.77L131.282 183.344C132.113 183.596 132.738 183.96 133.158 184.436C133.578 184.903 133.788 185.486 133.788 186.186C133.788 186.765 133.634 187.278 133.326 187.726C133.027 188.174 132.612 188.529 132.08 188.79C131.548 189.042 130.932 189.168 130.232 189.168ZM138.073 189V184.296L134.503 178.57H136.365L139.221 183.204H138.563L141.405 178.57H143.267L139.711 184.296V189H138.073ZM147.875 189.168C147.222 189.168 146.615 189.047 146.055 188.804C145.495 188.552 145.019 188.211 144.627 187.782C144.235 187.353 143.946 186.858 143.759 186.298L145.159 185.71C145.411 186.354 145.78 186.849 146.265 187.194C146.751 187.539 147.311 187.712 147.945 187.712C148.319 187.712 148.645 187.656 148.925 187.544C149.205 187.423 149.42 187.255 149.569 187.04C149.728 186.825 149.807 186.578 149.807 186.298C149.807 185.915 149.7 185.612 149.485 185.388C149.271 185.164 148.953 184.987 148.533 184.856L146.573 184.24C145.789 183.997 145.192 183.629 144.781 183.134C144.371 182.63 144.165 182.042 144.165 181.37C144.165 180.782 144.31 180.269 144.599 179.83C144.889 179.382 145.285 179.032 145.789 178.78C146.303 178.528 146.886 178.402 147.539 178.402C148.165 178.402 148.734 178.514 149.247 178.738C149.761 178.953 150.199 179.251 150.563 179.634C150.937 180.017 151.207 180.46 151.375 180.964L150.003 181.566C149.798 181.015 149.476 180.591 149.037 180.292C148.608 179.993 148.109 179.844 147.539 179.844C147.194 179.844 146.891 179.905 146.629 180.026C146.368 180.138 146.163 180.306 146.013 180.53C145.873 180.745 145.803 180.997 145.803 181.286C145.803 181.622 145.911 181.921 146.125 182.182C146.34 182.443 146.667 182.639 147.105 182.77L148.925 183.344C149.756 183.596 150.381 183.96 150.801 184.436C151.221 184.903 151.431 185.486 151.431 186.186C151.431 186.765 151.277 187.278 150.969 187.726C150.671 188.174 150.255 188.529 149.723 188.79C149.191 189.042 148.575 189.168 147.875 189.168ZM153.272 189V181.426H154.784V183.064L154.588 182.812C154.746 182.299 155.036 181.911 155.456 181.65C155.876 181.389 156.356 181.258 156.898 181.258C157.504 181.258 158.041 181.421 158.508 181.748C158.984 182.065 159.301 182.49 159.46 183.022L159.012 183.064C159.236 182.457 159.576 182.005 160.034 181.706C160.5 181.407 161.032 181.258 161.63 181.258C162.152 181.258 162.624 181.379 163.044 181.622C163.473 181.865 163.814 182.201 164.066 182.63C164.318 183.059 164.444 183.549 164.444 184.1V189H162.862V184.534C162.862 184.151 162.792 183.829 162.652 183.568C162.521 183.297 162.334 183.092 162.092 182.952C161.858 182.803 161.583 182.728 161.266 182.728C160.948 182.728 160.668 182.803 160.426 182.952C160.183 183.092 159.992 183.297 159.852 183.568C159.712 183.839 159.642 184.161 159.642 184.534V189H158.074V184.534C158.074 184.151 158.004 183.829 157.864 183.568C157.733 183.297 157.546 183.092 157.304 182.952C157.07 182.803 156.79 182.728 156.464 182.728C156.146 182.728 155.866 182.803 155.624 182.952C155.381 183.092 155.19 183.297 155.05 183.568C154.919 183.839 154.854 184.161 154.854 184.534V189H153.272ZM166.277 189V181.426H167.789V183.064L167.593 182.812C167.752 182.299 168.041 181.911 168.461 181.65C168.881 181.389 169.362 181.258 169.903 181.258C170.51 181.258 171.046 181.421 171.513 181.748C171.989 182.065 172.306 182.49 172.465 183.022L172.017 183.064C172.241 182.457 172.582 182.005 173.039 181.706C173.506 181.407 174.038 181.258 174.635 181.258C175.158 181.258 175.629 181.379 176.049 181.622C176.478 181.865 176.819 182.201 177.071 182.63C177.323 183.059 177.449 183.549 177.449 184.1V189H175.867V184.534C175.867 184.151 175.797 183.829 175.657 183.568C175.526 183.297 175.34 183.092 175.097 182.952C174.864 182.803 174.588 182.728 174.271 182.728C173.954 182.728 173.674 182.803 173.431 182.952C173.188 183.092 172.997 183.297 172.857 183.568C172.717 183.839 172.647 184.161 172.647 184.534V189H171.079V184.534C171.079 184.151 171.009 183.829 170.869 183.568C170.738 183.297 170.552 183.092 170.309 182.952C170.076 182.803 169.796 182.728 169.469 182.728C169.152 182.728 168.872 182.803 168.629 182.952C168.386 183.092 168.195 183.297 168.055 183.568C167.924 183.839 167.859 184.161 167.859 184.534V189H166.277ZM178.512 190.68L183.188 179.13H184.938L180.262 190.68H178.512ZM186.162 189V178.402H187.744V182.91L187.492 182.714C187.679 182.238 187.978 181.879 188.388 181.636C188.799 181.384 189.275 181.258 189.816 181.258C190.376 181.258 190.871 181.379 191.3 181.622C191.73 181.865 192.066 182.201 192.308 182.63C192.551 183.059 192.672 183.549 192.672 184.1V189H191.104V184.534C191.104 184.151 191.03 183.829 190.88 183.568C190.74 183.297 190.544 183.092 190.292 182.952C190.04 182.803 189.751 182.728 189.424 182.728C189.107 182.728 188.818 182.803 188.556 182.952C188.304 183.092 188.104 183.297 187.954 183.568C187.814 183.839 187.744 184.161 187.744 184.534V189H186.162ZM198.16 192.08C197.609 192.08 197.1 191.991 196.634 191.814C196.167 191.637 195.766 191.389 195.43 191.072C195.094 190.764 194.842 190.4 194.674 189.98L196.13 189.378C196.26 189.733 196.498 190.027 196.844 190.26C197.198 190.493 197.632 190.61 198.146 190.61C198.547 190.61 198.906 190.531 199.224 190.372C199.541 190.223 199.793 189.999 199.98 189.7C200.166 189.411 200.26 189.061 200.26 188.65V186.942L200.54 187.264C200.278 187.749 199.914 188.118 199.448 188.37C198.99 188.622 198.472 188.748 197.894 188.748C197.194 188.748 196.564 188.585 196.004 188.258C195.444 187.931 195 187.483 194.674 186.914C194.356 186.345 194.198 185.705 194.198 184.996C194.198 184.277 194.356 183.638 194.674 183.078C195 182.518 195.439 182.075 195.99 181.748C196.54 181.421 197.17 181.258 197.88 181.258C198.458 181.258 198.972 181.384 199.42 181.636C199.877 181.879 200.25 182.233 200.54 182.7L200.33 183.092V181.426H201.828V188.65C201.828 189.303 201.669 189.887 201.352 190.4C201.044 190.923 200.614 191.333 200.064 191.632C199.513 191.931 198.878 192.08 198.16 192.08ZM198.076 187.278C198.496 187.278 198.869 187.18 199.196 186.984C199.522 186.779 199.779 186.508 199.966 186.172C200.162 185.827 200.26 185.439 200.26 185.01C200.26 184.581 200.162 184.193 199.966 183.848C199.77 183.503 199.508 183.232 199.182 183.036C198.855 182.831 198.486 182.728 198.076 182.728C197.646 182.728 197.264 182.831 196.928 183.036C196.592 183.232 196.326 183.503 196.13 183.848C195.943 184.184 195.85 184.571 195.85 185.01C195.85 185.43 195.943 185.813 196.13 186.158C196.326 186.503 196.592 186.779 196.928 186.984C197.264 187.18 197.646 187.278 198.076 187.278Z" fill="#BEC5D2"/>
</svg>
